  0
SECTION
  2
HEADER
  9
$ACADVER
  1
AC1006
  9
$DWGCODEPAGE
  3
ansi_1252
  9
$INSBASE
 10
0.0
 20
0.0
 30
0.0
  9
$EXTMIN
 10
1.000000000000000E+20
 20
1.000000000000000E+20
  9
$EXTMAX
 10
-1.000000000000000E+20
 20
-1.000000000000000E+20
  9
$LIMMIN
 10
0.0
 20
0.0
  9
$LIMMAX
 10
12.0
 20
9.0
  9
$ORTHOMODE
 70
     0
  9
$REGENMODE
 70
     1
  9
$FILLMODE
 70
     1
  9
$QTEXTMODE
 70
     0
  9
$MIRRTEXT
 70
     1
  9
$DRAGMODE
 70
     2
  9
$LTSCALE
 40
1.0
  9
$OSMODE
 70
    37
  9
$ATTMODE
 70
     1
  9
$TEXTSIZE
 40
0.2
  9
$TRACEWID
 40
0.05
  9
$TEXTSTYLE
  7
STANDARD
  9
$CLAYER
  8
0
  9
$CELTYPE
  6
BYLAYER
  9
$CECOLOR
 62
   256
  9
$DIMSCALE
 40
1.0
  9
$DIMASZ
 40
0.18
  9
$DIMEXO
 40
0.0625
  9
$DIMDLI
 40
0.38
  9
$DIMRND
 40
0.0
  9
$DIMDLE
 40
0.0
  9
$DIMEXE
 40
0.18
  9
$DIMTP
 40
0.0
  9
$DIMTM
 40
0.0
  9
$DIMTXT
 40
0.18
  9
$DIMCEN
 40
0.09
  9
$DIMTSZ
 40
0.0
  9
$DIMTOL
 70
     0
  9
$DIMLIM
 70
     0
  9
$DIMTIH
 70
     1
  9
$DIMTOH
 70
     1
  9
$DIMSE1
 70
     0
  9
$DIMSE2
 70
     0
  9
$DIMTAD
 70
     0
  9
$DIMZIN
 70
     0
  9
$DIMBLK
  1

  9
$DIMASO
 70
     1
  9
$DIMSHO
 70
     1
  9
$DIMPOST
  1

  9
$DIMAPOST
  1

  9
$DIMALT
 70
     0
  9
$DIMALTD
 70
     2
  9
$DIMALTF
 40
25.4
  9
$DIMLFAC
 40
1.0
  9
$DIMTOFL
 70
     0
  9
$DIMTVP
 40
0.0
  9
$DIMTIX
 70
     0
  9
$DIMSOXD
 70
     0
  9
$DIMSAH
 70
     0
  9
$DIMBLK1
  1

  9
$DIMBLK2
  1

  9
$LUNITS
 70
     2
  9
$LUPREC
 70
     4
  9
$SKETCHINC
 40
0.1
  9
$FILLETRAD
 40
0.5
  9
$AUNITS
 70
     0
  9
$AUPREC
 70
     0
  9
$MENU
  1
.
  9
$ELEVATION
 40
0.0
  9
$THICKNESS
 40
0.0
  9
$LIMCHECK
 70
     0
  9
$CHAMFERA
 40
0.0
  9
$CHAMFERB
 40
0.0
  9
$SKPOLY
 70
     0
  9
$TDCREATE
 40
2459360.165486748
  9
$TDUPDATE
 40
2459360.165487442
  9
$TDINDWG
 40
0.0000000116
  9
$TDUSRTIMER
 40
0.0000000116
  9
$USRTIMER
 70
     1
  9
$ANGBASE
 50
0.0
  9
$ANGDIR
 70
     0
  9
$PDMODE
 70
     0
  9
$PDSIZE
 40
0.0
  9
$PLINEWID
 40
0.0
  9
$COORDS
 70
     1
  9
$SPLFRAME
 70
     0
  9
$SPLINETYPE
 70
     6
  9
$SPLINESEGS
 70
     8
  9
$ATTDIA
 70
     0
  9
$ATTREQ
 70
     1
  9
$HANDLING
 70
     1
  9
$HANDSEED
  5
11D
  9
$SURFTAB1
 70
     6
  9
$SURFTAB2
 70
     6
  9
$SURFTYPE
 70
     6
  9
$SURFU
 70
     6
  9
$SURFV
 70
     6
  9
$UCSNAME
  2

  9
$UCSORG
 10
0.0
 20
0.0
 30
0.0
  9
$UCSXDIR
 10
1.0
 20
0.0
 30
0.0
  9
$UCSYDIR
 10
0.0
 20
1.0
 30
0.0
  9
$USERI1
 70
     0
  9
$USERI2
 70
     0
  9
$USERI3
 70
     0
  9
$USERI4
 70
     0
  9
$USERI5
 70
     0
  9
$USERR1
 40
0.0
  9
$USERR2
 40
0.0
  9
$USERR3
 40
0.0
  9
$USERR4
 40
0.0
  9
$USERR5
 40
0.0
  9
$WORLDVIEW
 70
     1
  0
ENDSEC
  0
SECTION
  2
TABLES
  0
TABLE
  2
VPORT
 70
     1
  0
VPORT
  2
*ACTIVE
 70
     0
 10
0.0
 20
0.0
 11
1.0
 21
1.0
 12
0.0
 22
0.0
 13
0.0
 23
0.0
 14
0.5
 24
0.5
 15
0.5
 25
0.5
 16
0.777547194091221
 26
0.5850255908848501
 36
0.2305762758193067
 17
13.82901096343994
 27
252.8327331542969
 37
122.2398300170898
 40
259.7924499511719
 41
1.8
 42
50.0
 43
0.0
 44
0.0
 50
0.0
 51
0.0000006314692326
 71
     0
 72
   100
 73
     1
 74
     3
 75
     0
 76
     0
 77
     0
 78
     0
  0
ENDTAB
  0
TABLE
  2
LTYPE
 70
     1
  0
LTYPE
  2
CONTINUOUS
 70
     0
  3
Solid line
 72
    65
 73
     0
 40
0.0
  0
ENDTAB
  0
TABLE
  2
LAYER
 70
     1
  0
LAYER
  2
0
 70
     0
 62
     7
  6
CONTINUOUS
  0
ENDTAB
  0
TABLE
  2
STYLE
 70
     1
  0
STYLE
  2
STANDARD
 70
     0
 40
0.0
 41
1.0
 50
0.0
 71
     0
 42
0.2
  3
txt
  4

  0
ENDTAB
  0
TABLE
  2
VIEW
 70
     0
  0
ENDTAB
  0
TABLE
  2
UCS
 70
     0
  0
ENDTAB
  0
ENDSEC
  0
SECTION
  2
BLOCKS
  0
BLOCK
  8
0
  2
_INCLUDE_LIBRARY_1
 70
     0
 10
0.0
 20
0.0
 30
0.0
  0
ENDBLK
  8
0
  0
BLOCK
  8
0
  2
_INCLUDE_LIBRARY_2
 70
     0
 10
0.0
 20
0.0
 30
0.0
  0
LINE
  5
75
  8
0
 62
     7
 10
-74.31783294677734
 20
36.80299758911133
 30
-114.146484375
 11
-81.92313385009766
 21
49.73200988769531
 31
-114.146484375
  0
ENDBLK
  8
0
  0
BLOCK
  8
0
  2
_INCLUDE_LIBRARY_3
 70
     0
 10
0.0
 20
0.0
 30
0.0
  0
ENDBLK
  8
0
  0
BLOCK
  8
0
  2
_INCLUDE_LIBRARY_4
 70
     0
 10
0.0
 20
0.0
 30
0.0
  0
POLYLINE
  5
7C
  8
0
 62
    18
 66
     1
 10
0.0
 20
0.0
 30
0.0
 70
    64
 71
    48
 72
    28
  0
VERTEX
  5
D0
  8
0
 62
    18
 10
-81.92313385009766
 20
49.73200988769531
 30
-164.146484375
 70
   192
  0
VERTEX
  5
D1
  8
0
 62
    18
 10
-149.3368682861328
 20
164.3353576660156
 30
-164.146484375
 70
   192
  0
VERTEX
  5
D2
  8
0
 62
    18
 10
-87.4207763671875
 20
46.49978256225586
 30
-164.146484375
 70
   192
  0
VERTEX
  5
D3
  8
0
 62
    18
 10
-154.8084869384766
 20
161.1184234619141
 30
-164.146484375
 70
   192
  0
VERTEX
  5
D4
  8
0
 62
    18
 10
-81.92313385009766
 20
49.73200988769531
 30
-164.146484375
 70
   192
  0
VERTEX
  5
D5
  8
0
 62
    18
 10
-87.4207763671875
 20
46.49978256225586
 30
-164.146484375
 70
   192
  0
VERTEX
  5
D6
  8
0
 62
    18
 10
-81.92313385009766
 20
49.73200988769531
 30
-124.146484375
 70
   192
  0
VERTEX
  5
D7
  8
0
 62
    18
 10
-87.4207763671875
 20
46.49978256225586
 30
-124.146484375
 70
   192
  0
VERTEX
  5
D8
  8
0
 62
    18
 10
-87.4207763671875
 20
46.49978256225586
 30
-164.146484375
 70
   192
  0
VERTEX
  5
D9
  8
0
 62
    18
 10
-154.8084869384766
 20
161.1184234619141
 30
-164.146484375
 70
   192
  0
VERTEX
  5
DA
  8
0
 62
    18
 10
-87.4207763671875
 20
46.49978256225586
 30
-124.146484375
 70
   192
  0
VERTEX
  5
DB
  8
0
 62
    18
 10
-154.8084869384766
 20
161.1184234619141
 30
-124.146484375
 70
   192
  0
VERTEX
  5
DC
  8
0
 62
    18
 10
-81.92313385009766
 20
49.73200988769531
 30
-124.146484375
 70
   192
  0
VERTEX
  5
DD
  8
0
 62
    18
 10
-87.4207763671875
 20
46.49978256225586
 30
-124.146484375
 70
   192
  0
VERTEX
  5
DE
  8
0
 62
    18
 10
-149.3368682861328
 20
164.3353576660156
 30
-124.146484375
 70
   192
  0
VERTEX
  5
DF
  8
0
 62
    18
 10
-154.8084869384766
 20
161.1184234619141
 30
-124.146484375
 70
   192
  0
VERTEX
  5
E0
  8
0
 62
    18
 10
-149.3368682861328
 20
164.3353576660156
 30
-124.146484375
 70
   192
  0
VERTEX
  5
E1
  8
0
 62
    18
 10
-154.8084869384766
 20
161.1184234619141
 30
-124.146484375
 70
   192
  0
VERTEX
  5
E2
  8
0
 62
    18
 10
-149.3368682861328
 20
164.3353576660156
 30
-164.146484375
 70
   192
  0
VERTEX
  5
E3
  8
0
 62
    18
 10
-154.8084869384766
 20
161.1184234619141
 30
-164.146484375
 70
   192
  0
VERTEX
  5
E4
  8
0
 62
    18
 10
-164.3178253173828
 20
36.80299758911133
 30
-174.146484375
 70
   192
  0
VERTEX
  5
E5
  8
0
 62
    18
 10
-164.3178253173828
 20
36.80299758911133
 30
-114.146484375
 70
   192
  0
VERTEX
  5
E6
  8
0
 62
    18
 10
-164.3178253173828
 20
172.8029937744141
 30
-174.146484375
 70
   192
  0
VERTEX
  5
E7
  8
0
 62
    18
 10
-164.3178253173828
 20
172.8029937744141
 30
-114.146484375
 70
   192
  0
VERTEX
  5
E8
  8
0
 62
    18
 10
-154.3178253173828
 20
172.8029937744141
 30
-174.146484375
 70
   192
  0
VERTEX
  5
E9
  8
0
 62
    18
 10
-164.3178253173828
 20
172.8029937744141
 30
-174.146484375
 70
   192
  0
VERTEX
  5
EA
  8
0
 62
    18
 10
-154.3178253173828
 20
172.8029937744141
 30
-114.146484375
 70
   192
  0
VERTEX
  5
EB
  8
0
 62
    18
 10
-164.3178253173828
 20
172.8029937744141
 30
-114.146484375
 70
   192
  0
VERTEX
  5
EC
  8
0
 62
    18
 10
-149.3368682861328
 20
164.3353576660156
 30
-124.146484375
 70
   192
  0
VERTEX
  5
ED
  8
0
 62
    18
 10
-154.3178253173828
 20
172.8029937744141
 30
-114.146484375
 70
   192
  0
VERTEX
  5
EE
  8
0
 62
    18
 10
-81.92313385009766
 20
49.73200988769531
 30
-124.146484375
 70
   192
  0
VERTEX
  5
EF
  8
0
 62
    18
 10
-149.3368682861328
 20
164.3353576660156
 30
-164.146484375
 70
   192
  0
VERTEX
  5
F0
  8
0
 62
    18
 10
-154.3178253173828
 20
172.8029937744141
 30
-174.146484375
 70
   192
  0
VERTEX
  5
F1
  8
0
 62
    18
 10
-74.31783294677734
 20
36.80299758911133
 30
-114.146484375
 70
   192
  0
VERTEX
  5
F2
  8
0
 62
    18
 10
-81.92313385009766
 20
49.73200988769531
 30
-164.146484375
 70
   192
  0
VERTEX
  5
F3
  8
0
 62
    18
 10
-74.31783294677734
 20
36.80299758911133
 30
-174.146484375
 70
   192
  0
VERTEX
  5
F4
  8
0
 62
    18
 10
-164.3178253173828
 20
36.80299758911133
 30
-174.146484375
 70
   192
  0
VERTEX
  5
F5
  8
0
 62
    18
 10
-74.31783294677734
 20
36.80299758911133
 30
-174.146484375
 70
   192
  0
VERTEX
  5
F6
  8
0
 62
    18
 10
-164.3178253173828
 20
36.80299758911133
 30
-114.146484375
 70
   192
  0
VERTEX
  5
F7
  8
0
 62
    18
 10
-74.31783294677734
 20
36.80299758911133
 30
-114.146484375
 70
   192
  0
VERTEX
  5
F8
  8
0
 62
    18
 10
-74.31783294677734
 20
36.80299758911133
 30
-174.146484375
 70
   192
  0
VERTEX
  5
F9
  8
0
 62
    18
 10
-164.3178253173828
 20
36.80299758911133
 30
-174.146484375
 70
   192
  0
VERTEX
  5
FA
  8
0
 62
    18
 10
-154.3178253173828
 20
172.8029937744141
 30
-174.146484375
 70
   192
  0
VERTEX
  5
FB
  8
0
 62
    18
 10
-164.3178253173828
 20
172.8029937744141
 30
-174.146484375
 70
   192
  0
VERTEX
  5
FC
  8
0
 62
    18
 10
-74.31783294677734
 20
36.80299758911133
 30
-114.146484375
 70
   192
  0
VERTEX
  5
FD
  8
0
 62
    18
 10
-154.3178253173828
 20
172.8029937744141
 30
-114.146484375
 70
   192
  0
VERTEX
  5
FE
  8
0
 62
    18
 10
-164.3178253173828
 20
36.80299758911133
 30
-114.146484375
 70
   192
  0
VERTEX
  5
FF
  8
0
 62
    18
 10
-164.3178253173828
 20
172.8029937744141
 30
-114.146484375
 70
   192
  0
VERTEX
  5
100
  8
0
 62
    18
 10
0.0
 20
0.0
 30
0.0
 70
   128
 71
     1
 72
     2
 73
     3
  0
VERTEX
  5
101
  8
0
 62
    18
 10
0.0
 20
0.0
 30
0.0
 70
   128
 71
     2
 72
     4
 73
     3
  0
VERTEX
  5
102
  8
0
 62
    18
 10
0.0
 20
0.0
 30
0.0
 70
   128
 71
     5
 72
     6
 73
     7
  0
VERTEX
  5
103
  8
0
 62
    18
 10
0.0
 20
0.0
 30
0.0
 70
   128
 71
     6
 72
     8
 73
     7
  0
VERTEX
  5
104
  8
0
 62
    18
 10
0.0
 20
0.0
 30
0.0
 70
   128
 71
     9
 72
    10
 73
    11
  0
VERTEX
  5
105
  8
0
 62
    18
 10
0.0
 20
0.0
 30
0.0
 70
   128
 71
    10
 72
    12
 73
    11
  0
VERTEX
  5
106
  8
0
 62
    18
 10
0.0
 20
0.0
 30
0.0
 70
   128
 71
    13
 72
    14
 73
    15
  0
VERTEX
  5
107
  8
0
 62
    18
 10
0.0
 20
0.0
 30
0.0
 70
   128
 71
    14
 72
    16
 73
    15
  0
VERTEX
  5
108
  8
0
 62
    18
 10
0.0
 20
0.0
 30
0.0
 70
   128
 71
    17
 72
    18
 73
    19
  0
VERTEX
  5
109
  8
0
 62
    18
 10
0.0
 20
0.0
 30
0.0
 70
   128
 71
    18
 72
    20
 73
    19
  0
VERTEX
  5
10A
  8
0
 62
    18
 10
0.0
 20
0.0
 30
0.0
 70
   128
 71
    21
 72
    22
 73
    23
  0
VERTEX
  5
10B
  8
0
 62
    18
 10
0.0
 20
0.0
 30
0.0
 70
   128
 71
    22
 72
    24
 73
    23
  0
VERTEX
  5
10C
  8
0
 62
    18
 10
0.0
 20
0.0
 30
0.0
 70
   128
 71
    25
 72
    26
 73
    27
  0
VERTEX
  5
10D
  8
0
 62
    18
 10
0.0
 20
0.0
 30
0.0
 70
   128
 71
    26
 72
    28
 73
    27
  0
VERTEX
  5
10E
  8
0
 62
    18
 10
0.0
 20
0.0
 30
0.0
 70
   128
 71
    29
 72
    30
 73
    31
  0
VERTEX
  5
10F
  8
0
 62
    18
 10
0.0
 20
0.0
 30
0.0
 70
   128
 71
    29
 72
    32
 73
    30
  0
VERTEX
  5
110
  8
0
 62
    18
 10
0.0
 20
0.0
 30
0.0
 70
   128
 71
    30
 72
    32
 73
    33
  0
VERTEX
  5
111
  8
0
 62
    18
 10
0.0
 20
0.0
 30
0.0
 70
   128
 71
    31
 72
    34
 73
    35
  0
VERTEX
  5
112
  8
0
 62
    18
 10
0.0
 20
0.0
 30
0.0
 70
   128
 71
    34
 72
    36
 73
    35
  0
VERTEX
  5
113
  8
0
 62
    18
 10
0.0
 20
0.0
 30
0.0
 70
   128
 71
    30
 72
    34
 73
    31
  0
VERTEX
  5
114
  8
0
 62
    18
 10
0.0
 20
0.0
 30
0.0
 70
   128
 71
    36
 72
    33
 73
    35
  0
VERTEX
  5
115
  8
0
 62
    18
 10
0.0
 20
0.0
 30
0.0
 70
   128
 71
    35
 72
    33
 73
    32
  0
VERTEX
  5
116
  8
0
 62
    18
 10
0.0
 20
0.0
 30
0.0
 70
   128
 71
    37
 72
    38
 73
    39
  0
VERTEX
  5
117
  8
0
 62
    18
 10
0.0
 20
0.0
 30
0.0
 70
   128
 71
    38
 72
    40
 73
    39
  0
VERTEX
  5
118
  8
0
 62
    18
 10
0.0
 20
0.0
 30
0.0
 70
   128
 71
    41
 72
    42
 73
    43
  0
VERTEX
  5
119
  8
0
 62
    18
 10
0.0
 20
0.0
 30
0.0
 70
   128
 71
    42
 72
    44
 73
    43
  0
VERTEX
  5
11A
  8
0
 62
    18
 10
0.0
 20
0.0
 30
0.0
 70
   128
 71
    45
 72
    46
 73
    47
  0
VERTEX
  5
11B
  8
0
 62
    18
 10
0.0
 20
0.0
 30
0.0
 70
   128
 71
    46
 72
    48
 73
    47
  0
SEQEND
  5
11C
  8
0
 62
    18
  0
ENDBLK
  8
0
  0
BLOCK
  8
0
  2
_INCLUDE_LIBRARY_5
 70
     0
 10
0.0
 20
0.0
 30
0.0
  0
LINE
  5
81
  8
0
 62
     7
 10
-81.92313385009766
 20
49.73200988769531
 30
-164.146484375
 11
-81.92313385009766
 21
49.73200988769531
 31
-164.146484375
  0
LINE
  5
82
  8
0
 62
     7
 10
-149.3368682861328
 20
164.3353576660156
 30
-164.146484375
 11
-149.3368682861328
 21
164.3353576660156
 31
-164.146484375
  0
LINE
  5
83
  8
0
 62
     7
 10
-154.8084869384766
 20
161.1184234619141
 30
-164.146484375
 11
-154.8084869384766
 21
161.1184234619141
 31
-164.146484375
  0
LINE
  5
84
  8
0
 62
     7
 10
-87.4207763671875
 20
46.49978256225586
 30
-164.146484375
 11
-87.4207763671875
 21
46.49978256225586
 31
-164.146484375
  0
LINE
  5
85
  8
0
 62
     7
 10
-81.92313385009766
 20
49.73200988769531
 30
-124.146484375
 11
-81.92313385009766
 21
49.73200988769531
 31
-124.146484375
  0
LINE
  5
86
  8
0
 62
     7
 10
-87.4207763671875
 20
46.49978256225586
 30
-124.146484375
 11
-87.4207763671875
 21
46.49978256225586
 31
-124.146484375
  0
LINE
  5
87
  8
0
 62
     7
 10
-154.8084869384766
 20
161.1184234619141
 30
-124.146484375
 11
-154.8084869384766
 21
161.1184234619141
 31
-124.146484375
  0
LINE
  5
88
  8
0
 62
     7
 10
-149.3368682861328
 20
164.3353576660156
 30
-124.146484375
 11
-149.3368682861328
 21
164.3353576660156
 31
-124.146484375
  0
LINE
  5
89
  8
0
 62
     7
 10
-164.3178253173828
 20
172.8029937744141
 30
-174.146484375
 11
-164.3178253173828
 21
172.8029937744141
 31
-174.146484375
  0
LINE
  5
8A
  8
0
 62
     7
 10
-164.3178253173828
 20
36.80299758911133
 30
-174.146484375
 11
-164.3178253173828
 21
36.80299758911133
 31
-174.146484375
  0
LINE
  5
8B
  8
0
 62
     7
 10
-164.3178253173828
 20
36.80299758911133
 30
-114.146484375
 11
-164.3178253173828
 21
36.80299758911133
 31
-114.146484375
  0
LINE
  5
8C
  8
0
 62
     7
 10
-164.3178253173828
 20
172.8029937744141
 30
-114.146484375
 11
-164.3178253173828
 21
172.8029937744141
 31
-114.146484375
  0
LINE
  5
8D
  8
0
 62
     7
 10
-154.3178253173828
 20
172.8029937744141
 30
-174.146484375
 11
-154.3178253173828
 21
172.8029937744141
 31
-174.146484375
  0
LINE
  5
8E
  8
0
 62
     7
 10
-154.3178253173828
 20
172.8029937744141
 30
-114.146484375
 11
-154.3178253173828
 21
172.8029937744141
 31
-114.146484375
  0
LINE
  5
8F
  8
0
 62
     7
 10
-74.31783294677734
 20
36.80299758911133
 30
-174.146484375
 11
-74.31783294677734
 21
36.80299758911133
 31
-174.146484375
  0
LINE
  5
90
  8
0
 62
     7
 10
-74.31783294677734
 20
36.80299758911133
 30
-114.146484375
 11
-74.31783294677734
 21
36.80299758911133
 31
-114.146484375
  0
ENDBLK
  8
0
  0
BLOCK
  8
0
  2
_INCLUDE_LIBRARY_6
 70
     0
 10
0.0
 20
0.0
 30
0.0
  0
ENDBLK
  8
0
  0
BLOCK
  8
0
  2
_INCLUDE_LIBRARY_7
 70
     0
 10
0.0
 20
0.0
 30
0.0
  0
LINE
  5
97
  8
0
 62
     7
 10
-74.31783294677734
 20
36.80299758911133
 30
-174.146484375
 11
-74.31783294677734
 21
36.80299758911133
 31
-114.146484375
  0
ENDBLK
  8
0
  0
BLOCK
  8
0
  2
_INCLUDE_LIBRARY_8
 70
     0
 10
0.0
 20
0.0
 30
0.0
  0
ENDBLK
  8
0
  0
BLOCK
  8
0
  2
_INCLUDE_LIBRARY_9
 70
     0
 10
0.0
 20
0.0
 30
0.0
  0
LINE
  5
9E
  8
0
 62
     7
 10
-154.3178253173828
 20
36.80299758911133
 30
-174.146484375
 11
-74.31783294677734
 21
36.80299758911133
 31
-174.146484375
  0
ENDBLK
  8
0
  0
BLOCK
  8
0
  2
_INCLUDE_LIBRARY_10
 70
     0
 10
0.0
 20
0.0
 30
0.0
  0
ENDBLK
  8
0
  0
BLOCK
  8
0
  2
_INCLUDE_LIBRARY_11
 70
     0
 10
0.0
 20
0.0
 30
0.0
  0
LINE
  5
A5
  8
0
 62
     7
 10
-74.31783294677734
 20
36.80299758911133
 30
-114.146484375
 11
-154.3178253173828
 21
36.80299758911133
 31
-114.146484375
  0
ENDBLK
  8
0
  0
BLOCK
  8
0
  2
12
 70
     0
 10
0.0
 20
0.0
 30
0.0
  0
INSERT
  5
AB
  8
0
  2
13
 10
0.0
 20
0.0
 30
0.0
  0
INSERT
  5
B1
  8
0
  2
14
 10
0.0
 20
0.0
 30
0.0
  0
INSERT
  5
B8
  8
0
  2
15
 10
0.0
 20
0.0
 30
0.0
  0
INSERT
  5
BE
  8
0
  2
16
 10
0.0
 20
0.0
 30
0.0
  0
INSERT
  5
C4
  8
0
  2
17
 10
0.0
 20
0.0
 30
0.0
  0
ENDBLK
  8
0
  0
BLOCK
  8
0
  2
13
 70
     0
 10
0.0
 20
0.0
 30
0.0
  0
INSERT
  5
AE
  8
0
  2
_INCLUDE_LIBRARY_2
 10
0.0
 20
0.0
 30
0.0
  0
INSERT
  5
AF
  8
0
  2
_INCLUDE_LIBRARY_1
 10
0.0
 20
0.0
 30
0.0
  0
ENDBLK
  8
0
  0
BLOCK
  8
0
  2
14
 70
     0
 10
0.0
 20
0.0
 30
0.0
  0
INSERT
  5
B4
  8
0
  2
_INCLUDE_LIBRARY_4
 10
0.0
 20
0.0
 30
0.0
  0
INSERT
  5
B5
  8
0
  2
_INCLUDE_LIBRARY_5
 10
0.0
 20
0.0
 30
0.0
  0
INSERT
  5
B6
  8
0
  2
_INCLUDE_LIBRARY_3
 10
0.0
 20
0.0
 30
0.0
  0
ENDBLK
  8
0
  0
BLOCK
  8
0
  2
15
 70
     0
 10
0.0
 20
0.0
 30
0.0
  0
INSERT
  5
BB
  8
0
  2
_INCLUDE_LIBRARY_7
 10
0.0
 20
0.0
 30
0.0
  0
INSERT
  5
BC
  8
0
  2
_INCLUDE_LIBRARY_6
 10
0.0
 20
0.0
 30
0.0
  0
ENDBLK
  8
0
  0
BLOCK
  8
0
  2
16
 70
     0
 10
0.0
 20
0.0
 30
0.0
  0
INSERT
  5
C1
  8
0
  2
_INCLUDE_LIBRARY_9
 10
0.0
 20
0.0
 30
0.0
  0
INSERT
  5
C2
  8
0
  2
_INCLUDE_LIBRARY_8
 10
0.0
 20
0.0
 30
0.0
  0
ENDBLK
  8
0
  0
BLOCK
  8
0
  2
17
 70
     0
 10
0.0
 20
0.0
 30
0.0
  0
INSERT
  5
C7
  8
0
  2
_INCLUDE_LIBRARY_11
 10
0.0
 20
0.0
 30
0.0
  0
INSERT
  5
C8
  8
0
  2
_INCLUDE_LIBRARY_10
 10
0.0
 20
0.0
 30
0.0
  0
ENDBLK
  8
0
  0
ENDSEC
  0
SECTION
  2
ENTITIES
  0
INSERT
  5
A7
  8
0
  2
12
 10
0.0
 20
0.0
 30
0.0
210
0.0
220
-1.0
230
0.0
  0
ENDSEC
  0
EOF
