  0
SECTION
  2
HEADER
  9
$ACADVER
  1
AC1006
  9
$DWGCODEPAGE
  3
ansi_1252
  9
$INSBASE
 10
0.0
 20
0.0
 30
0.0
  9
$EXTMIN
 10
1.000000000000000E+20
 20
1.000000000000000E+20
  9
$EXTMAX
 10
-1.000000000000000E+20
 20
-1.000000000000000E+20
  9
$LIMMIN
 10
0.0
 20
0.0
  9
$LIMMAX
 10
12.0
 20
9.0
  9
$ORTHOMODE
 70
     0
  9
$REGENMODE
 70
     1
  9
$FILLMODE
 70
     1
  9
$QTEXTMODE
 70
     0
  9
$MIRRTEXT
 70
     1
  9
$DRAGMODE
 70
     2
  9
$LTSCALE
 40
1.0
  9
$OSMODE
 70
    37
  9
$ATTMODE
 70
     1
  9
$TEXTSIZE
 40
0.2
  9
$TRACEWID
 40
0.05
  9
$TEXTSTYLE
  7
STANDARD
  9
$CLAYER
  8
0
  9
$CELTYPE
  6
BYLAYER
  9
$CECOLOR
 62
   256
  9
$DIMSCALE
 40
1.0
  9
$DIMASZ
 40
0.18
  9
$DIMEXO
 40
0.0625
  9
$DIMDLI
 40
0.38
  9
$DIMRND
 40
0.0
  9
$DIMDLE
 40
0.0
  9
$DIMEXE
 40
0.18
  9
$DIMTP
 40
0.0
  9
$DIMTM
 40
0.0
  9
$DIMTXT
 40
0.18
  9
$DIMCEN
 40
0.09
  9
$DIMTSZ
 40
0.0
  9
$DIMTOL
 70
     0
  9
$DIMLIM
 70
     0
  9
$DIMTIH
 70
     1
  9
$DIMTOH
 70
     1
  9
$DIMSE1
 70
     0
  9
$DIMSE2
 70
     0
  9
$DIMTAD
 70
     0
  9
$DIMZIN
 70
     0
  9
$DIMBLK
  1

  9
$DIMASO
 70
     1
  9
$DIMSHO
 70
     1
  9
$DIMPOST
  1

  9
$DIMAPOST
  1

  9
$DIMALT
 70
     0
  9
$DIMALTD
 70
     2
  9
$DIMALTF
 40
25.4
  9
$DIMLFAC
 40
1.0
  9
$DIMTOFL
 70
     0
  9
$DIMTVP
 40
0.0
  9
$DIMTIX
 70
     0
  9
$DIMSOXD
 70
     0
  9
$DIMSAH
 70
     0
  9
$DIMBLK1
  1

  9
$DIMBLK2
  1

  9
$LUNITS
 70
     2
  9
$LUPREC
 70
     4
  9
$SKETCHINC
 40
0.1
  9
$FILLETRAD
 40
0.5
  9
$AUNITS
 70
     0
  9
$AUPREC
 70
     0
  9
$MENU
  1
.
  9
$ELEVATION
 40
0.0
  9
$THICKNESS
 40
0.0
  9
$LIMCHECK
 70
     0
  9
$CHAMFERA
 40
0.0
  9
$CHAMFERB
 40
0.0
  9
$SKPOLY
 70
     0
  9
$TDCREATE
 40
2459360.223653391
  9
$TDUPDATE
 40
2459360.223654086
  9
$TDINDWG
 40
0.0000000116
  9
$TDUSRTIMER
 40
0.0000000116
  9
$USRTIMER
 70
     1
  9
$ANGBASE
 50
0.0
  9
$ANGDIR
 70
     0
  9
$PDMODE
 70
     0
  9
$PDSIZE
 40
0.0
  9
$PLINEWID
 40
0.0
  9
$COORDS
 70
     1
  9
$SPLFRAME
 70
     0
  9
$SPLINETYPE
 70
     6
  9
$SPLINESEGS
 70
     8
  9
$ATTDIA
 70
     0
  9
$ATTREQ
 70
     1
  9
$HANDLING
 70
     1
  9
$HANDSEED
  5
102
  9
$SURFTAB1
 70
     6
  9
$SURFTAB2
 70
     6
  9
$SURFTYPE
 70
     6
  9
$SURFU
 70
     6
  9
$SURFV
 70
     6
  9
$UCSNAME
  2

  9
$UCSORG
 10
0.0
 20
0.0
 30
0.0
  9
$UCSXDIR
 10
1.0
 20
0.0
 30
0.0
  9
$UCSYDIR
 10
0.0
 20
1.0
 30
0.0
  9
$USERI1
 70
     0
  9
$USERI2
 70
     0
  9
$USERI3
 70
     0
  9
$USERI4
 70
     0
  9
$USERI5
 70
     0
  9
$USERR1
 40
0.0
  9
$USERR2
 40
0.0
  9
$USERR3
 40
0.0
  9
$USERR4
 40
0.0
  9
$USERR5
 40
0.0
  9
$WORLDVIEW
 70
     1
  0
ENDSEC
  0
SECTION
  2
TABLES
  0
TABLE
  2
VPORT
 70
     1
  0
VPORT
  2
*ACTIVE
 70
     0
 10
0.0
 20
0.0
 11
1.0
 21
1.0
 12
0.0
 22
0.0
 13
0.0
 23
0.0
 14
0.5
 24
0.5
 15
0.5
 25
0.5
 16
-0.6762095582439134
 26
-0.7207901730691242
 36
0.1523225516676818
 17
578.1268920898438
 27
-434.0793762207031
 37
78.10295104980469
 40
138.1292572021484
 41
1.000000110467466
 42
50.0
 43
0.0
 44
0.0
 50
0.0
 51
0.0000004067160903
 71
     0
 72
   100
 73
     1
 74
     3
 75
     0
 76
     0
 77
     0
 78
     0
  0
ENDTAB
  0
TABLE
  2
LTYPE
 70
     1
  0
LTYPE
  2
CONTINUOUS
 70
     0
  3
Solid line
 72
    65
 73
     0
 40
0.0
  0
ENDTAB
  0
TABLE
  2
LAYER
 70
     1
  0
LAYER
  2
0
 70
     0
 62
     7
  6
CONTINUOUS
  0
ENDTAB
  0
TABLE
  2
STYLE
 70
     1
  0
STYLE
  2
STANDARD
 70
     0
 40
0.0
 41
1.0
 50
0.0
 71
     0
 42
0.2
  3
txt
  4

  0
ENDTAB
  0
TABLE
  2
VIEW
 70
     0
  0
ENDTAB
  0
TABLE
  2
UCS
 70
     0
  0
ENDTAB
  0
ENDSEC
  0
SECTION
  2
BLOCKS
  0
BLOCK
  8
0
  2
_INCLUDE_LIBRARY_1
 70
     0
 10
0.0
 20
0.0
 30
0.0
  0
ENDBLK
  8
0
  0
BLOCK
  8
0
  2
_INCLUDE_LIBRARY_2
 70
     0
 10
0.0
 20
0.0
 30
0.0
  0
LINE
  5
75
  8
0
 62
     7
 10
769.9868774414062
 20
4.330124378204346
 30
147.7329254150391
 11
769.9868774414062
 21
4.330124378204346
 31
207.7329254150391
  0
ENDBLK
  8
0
  0
BLOCK
  8
0
  2
_INCLUDE_LIBRARY_3
 70
     0
 10
0.0
 20
0.0
 30
0.0
  0
ENDBLK
  8
0
  0
BLOCK
  8
0
  2
_INCLUDE_LIBRARY_4
 70
     0
 10
0.0
 20
0.0
 30
0.0
  0
POLYLINE
  5
7C
  8
0
 62
    18
 66
     1
 10
0.0
 20
0.0
 30
0.0
 70
    64
 71
    54
 72
    32
  0
VERTEX
  5
AB
  8
0
 62
    18
 10
769.9868774414062
 20
-0.0000002651653404
 30
147.7329254150391
 70
   192
  0
VERTEX
  5
AC
  8
0
 62
    18
 10
769.9868774414062
 20
-0.0000003728591196
 30
207.7329254150391
 70
   192
  0
VERTEX
  5
AD
  8
0
 62
    18
 10
769.9868774414062
 20
4.330124378204346
 30
147.7329254150391
 70
   192
  0
VERTEX
  5
AE
  8
0
 62
    18
 10
769.9868774414062
 20
4.330124378204346
 30
207.7329254150391
 70
   192
  0
VERTEX
  5
AF
  8
0
 62
    18
 10
769.9868774414062
 20
-0.0000002651653404
 30
147.7329254150391
 70
   192
  0
VERTEX
  5
B0
  8
0
 62
    18
 10
769.9868774414062
 20
4.330124378204346
 30
147.7329254150391
 70
   192
  0
VERTEX
  5
B1
  8
0
 62
    18
 10
819.9868774414062
 20
-0.0000002651653404
 30
147.7329254150391
 70
   192
  0
VERTEX
  5
B2
  8
0
 62
    18
 10
809.9868774414062
 20
73.61199951171875
 30
147.7329254150391
 70
   192
  0
VERTEX
  5
B3
  8
0
 62
    18
 10
819.9868774414062
 20
73.61199951171875
 30
147.7329254150391
 70
   192
  0
VERTEX
  5
B4
  8
0
 62
    18
 10
809.9868774414062
 20
73.61199951171875
 30
147.7329254150391
 70
   192
  0
VERTEX
  5
B5
  8
0
 62
    18
 10
769.9868774414062
 20
4.330124378204346
 30
147.7329254150391
 70
   192
  0
VERTEX
  5
B6
  8
0
 62
    18
 10
774.9996948242188
 20
13.01253318786621
 30
157.7329254150391
 70
   192
  0
VERTEX
  5
B7
  8
0
 62
    18
 10
804.999755859375
 20
64.97402954101562
 30
157.7329254150391
 70
   192
  0
VERTEX
  5
B8
  8
0
 62
    18
 10
809.9868774414062
 20
73.61199951171875
 30
207.7329254150391
 70
   192
  0
VERTEX
  5
B9
  8
0
 62
    18
 10
774.9996948242188
 20
13.01253318786621
 30
197.7329254150391
 70
   192
  0
VERTEX
  5
BA
  8
0
 62
    18
 10
769.9868774414062
 20
4.330124378204346
 30
207.7329254150391
 70
   192
  0
VERTEX
  5
BB
  8
0
 62
    18
 10
804.999755859375
 20
64.97402954101562
 30
197.7329254150391
 70
   192
  0
VERTEX
  5
BC
  8
0
 62
    18
 10
774.9996948242188
 20
13.01253318786621
 30
197.7329254150391
 70
   192
  0
VERTEX
  5
BD
  8
0
 62
    18
 10
804.999755859375
 20
64.97402954101562
 30
197.7329254150391
 70
   192
  0
VERTEX
  5
BE
  8
0
 62
    18
 10
779.329833984375
 20
10.51253318786621
 30
197.7329254150391
 70
   192
  0
VERTEX
  5
BF
  8
0
 62
    18
 10
809.329833984375
 20
62.47405624389648
 30
197.7329254150391
 70
   192
  0
VERTEX
  5
C0
  8
0
 62
    18
 10
774.9996948242188
 20
13.01253318786621
 30
197.7329254150391
 70
   192
  0
VERTEX
  5
C1
  8
0
 62
    18
 10
779.329833984375
 20
10.51253318786621
 30
197.7329254150391
 70
   192
  0
VERTEX
  5
C2
  8
0
 62
    18
 10
774.9996948242188
 20
13.01253318786621
 30
157.7329254150391
 70
   192
  0
VERTEX
  5
C3
  8
0
 62
    18
 10
779.329833984375
 20
10.51253318786621
 30
157.7329254150391
 70
   192
  0
VERTEX
  5
C4
  8
0
 62
    18
 10
779.329833984375
 20
10.51253318786621
 30
197.7329254150391
 70
   192
  0
VERTEX
  5
C5
  8
0
 62
    18
 10
809.329833984375
 20
62.47405624389648
 30
197.7329254150391
 70
   192
  0
VERTEX
  5
C6
  8
0
 62
    18
 10
779.329833984375
 20
10.51253318786621
 30
157.7329254150391
 70
   192
  0
VERTEX
  5
C7
  8
0
 62
    18
 10
809.329833984375
 20
62.47405624389648
 30
157.7329254150391
 70
   192
  0
VERTEX
  5
C8
  8
0
 62
    18
 10
774.9996948242188
 20
13.01253318786621
 30
157.7329254150391
 70
   192
  0
VERTEX
  5
C9
  8
0
 62
    18
 10
779.329833984375
 20
10.51253318786621
 30
157.7329254150391
 70
   192
  0
VERTEX
  5
CA
  8
0
 62
    18
 10
804.999755859375
 20
64.97402954101562
 30
157.7329254150391
 70
   192
  0
VERTEX
  5
CB
  8
0
 62
    18
 10
809.329833984375
 20
62.47405624389648
 30
157.7329254150391
 70
   192
  0
VERTEX
  5
CC
  8
0
 62
    18
 10
804.999755859375
 20
64.97402954101562
 30
157.7329254150391
 70
   192
  0
VERTEX
  5
CD
  8
0
 62
    18
 10
809.329833984375
 20
62.47405624389648
 30
157.7329254150391
 70
   192
  0
VERTEX
  5
CE
  8
0
 62
    18
 10
804.999755859375
 20
64.97402954101562
 30
197.7329254150391
 70
   192
  0
VERTEX
  5
CF
  8
0
 62
    18
 10
809.329833984375
 20
62.47405624389648
 30
197.7329254150391
 70
   192
  0
VERTEX
  5
D0
  8
0
 62
    18
 10
769.9868774414062
 20
-0.0000003728591196
 30
207.7329254150391
 70
   192
  0
VERTEX
  5
D1
  8
0
 62
    18
 10
819.9868774414062
 20
-0.0000003728591196
 30
207.7329254150391
 70
   192
  0
VERTEX
  5
D2
  8
0
 62
    18
 10
769.9868774414062
 20
4.330124378204346
 30
207.7329254150391
 70
   192
  0
VERTEX
  5
D3
  8
0
 62
    18
 10
819.9868774414062
 20
73.61199951171875
 30
207.7329254150391
 70
   192
  0
VERTEX
  5
D4
  8
0
 62
    18
 10
809.9868774414062
 20
73.61199951171875
 30
207.7329254150391
 70
   192
  0
VERTEX
  5
D5
  8
0
 62
    18
 10
769.9868774414062
 20
-0.0000003728591196
 30
207.7329254150391
 70
   192
  0
VERTEX
  5
D6
  8
0
 62
    18
 10
769.9868774414062
 20
-0.0000002651653404
 30
147.7329254150391
 70
   192
  0
VERTEX
  5
D7
  8
0
 62
    18
 10
819.9868774414062
 20
-0.0000003728591196
 30
207.7329254150391
 70
   192
  0
VERTEX
  5
D8
  8
0
 62
    18
 10
819.9868774414062
 20
-0.0000002651653404
 30
147.7329254150391
 70
   192
  0
VERTEX
  5
D9
  8
0
 62
    18
 10
819.9868774414062
 20
73.61199951171875
 30
207.7329254150391
 70
   192
  0
VERTEX
  5
DA
  8
0
 62
    18
 10
819.9868774414062
 20
73.61199951171875
 30
147.7329254150391
 70
   192
  0
VERTEX
  5
DB
  8
0
 62
    18
 10
809.9868774414062
 20
73.61199951171875
 30
207.7329254150391
 70
   192
  0
VERTEX
  5
DC
  8
0
 62
    18
 10
809.9868774414062
 20
73.61199951171875
 30
147.7329254150391
 70
   192
  0
VERTEX
  5
DD
  8
0
 62
    18
 10
819.9868774414062
 20
-0.0000003728591196
 30
207.7329254150391
 70
   192
  0
VERTEX
  5
DE
  8
0
 62
    18
 10
819.9868774414062
 20
-0.0000002651653404
 30
147.7329254150391
 70
   192
  0
VERTEX
  5
DF
  8
0
 62
    18
 10
819.9868774414062
 20
73.61199951171875
 30
207.7329254150391
 70
   192
  0
VERTEX
  5
E0
  8
0
 62
    18
 10
819.9868774414062
 20
73.61199951171875
 30
147.7329254150391
 70
   192
  0
VERTEX
  5
E1
  8
0
 62
    18
 10
0.0
 20
0.0
 30
0.0
 70
   128
 71
     1
 72
     2
 73
     3
  0
VERTEX
  5
E2
  8
0
 62
    18
 10
0.0
 20
0.0
 30
0.0
 70
   128
 71
     2
 72
     4
 73
     3
  0
VERTEX
  5
E3
  8
0
 62
    18
 10
0.0
 20
0.0
 30
0.0
 70
   128
 71
     5
 72
     6
 73
     7
  0
VERTEX
  5
E4
  8
0
 62
    18
 10
0.0
 20
0.0
 30
0.0
 70
   128
 71
     6
 72
     8
 73
     7
  0
VERTEX
  5
E5
  8
0
 62
    18
 10
0.0
 20
0.0
 30
0.0
 70
   128
 71
     8
 72
     9
 73
     7
  0
VERTEX
  5
E6
  8
0
 62
    18
 10
0.0
 20
0.0
 30
0.0
 70
   128
 71
    10
 72
    11
 73
    12
  0
VERTEX
  5
E7
  8
0
 62
    18
 10
0.0
 20
0.0
 30
0.0
 70
   128
 71
    10
 72
    12
 73
    13
  0
VERTEX
  5
E8
  8
0
 62
    18
 10
0.0
 20
0.0
 30
0.0
 70
   128
 71
    10
 72
    13
 73
    14
  0
VERTEX
  5
E9
  8
0
 62
    18
 10
0.0
 20
0.0
 30
0.0
 70
   128
 71
    14
 72
    15
 73
    16
  0
VERTEX
  5
EA
  8
0
 62
    18
 10
0.0
 20
0.0
 30
0.0
 70
   128
 71
    13
 72
    17
 73
    14
  0
VERTEX
  5
EB
  8
0
 62
    18
 10
0.0
 20
0.0
 30
0.0
 70
   128
 71
    17
 72
    15
 73
    14
  0
VERTEX
  5
EC
  8
0
 62
    18
 10
0.0
 20
0.0
 30
0.0
 70
   128
 71
    15
 72
    12
 73
    16
  0
VERTEX
  5
ED
  8
0
 62
    18
 10
0.0
 20
0.0
 30
0.0
 70
   128
 71
    16
 72
    12
 73
    11
  0
VERTEX
  5
EE
  8
0
 62
    18
 10
0.0
 20
0.0
 30
0.0
 70
   128
 71
    18
 72
    19
 73
    20
  0
VERTEX
  5
EF
  8
0
 62
    18
 10
0.0
 20
0.0
 30
0.0
 70
   128
 71
    19
 72
    21
 73
    20
  0
VERTEX
  5
F0
  8
0
 62
    18
 10
0.0
 20
0.0
 30
0.0
 70
   128
 71
    22
 72
    23
 73
    24
  0
VERTEX
  5
F1
  8
0
 62
    18
 10
0.0
 20
0.0
 30
0.0
 70
   128
 71
    23
 72
    25
 73
    24
  0
VERTEX
  5
F2
  8
0
 62
    18
 10
0.0
 20
0.0
 30
0.0
 70
   128
 71
    26
 72
    27
 73
    28
  0
VERTEX
  5
F3
  8
0
 62
    18
 10
0.0
 20
0.0
 30
0.0
 70
   128
 71
    27
 72
    29
 73
    28
  0
VERTEX
  5
F4
  8
0
 62
    18
 10
0.0
 20
0.0
 30
0.0
 70
   128
 71
    30
 72
    31
 73
    32
  0
VERTEX
  5
F5
  8
0
 62
    18
 10
0.0
 20
0.0
 30
0.0
 70
   128
 71
    31
 72
    33
 73
    32
  0
VERTEX
  5
F6
  8
0
 62
    18
 10
0.0
 20
0.0
 30
0.0
 70
   128
 71
    34
 72
    35
 73
    36
  0
VERTEX
  5
F7
  8
0
 62
    18
 10
0.0
 20
0.0
 30
0.0
 70
   128
 71
    35
 72
    37
 73
    36
  0
VERTEX
  5
F8
  8
0
 62
    18
 10
0.0
 20
0.0
 30
0.0
 70
   128
 71
    38
 72
    39
 73
    40
  0
VERTEX
  5
F9
  8
0
 62
    18
 10
0.0
 20
0.0
 30
0.0
 70
   128
 71
    41
 72
    42
 73
    39
  0
VERTEX
  5
FA
  8
0
 62
    18
 10
0.0
 20
0.0
 30
0.0
 70
   128
 71
    42
 72
    40
 73
    39
  0
VERTEX
  5
FB
  8
0
 62
    18
 10
0.0
 20
0.0
 30
0.0
 70
   128
 71
    43
 72
    44
 73
    45
  0
VERTEX
  5
FC
  8
0
 62
    18
 10
0.0
 20
0.0
 30
0.0
 70
   128
 71
    44
 72
    46
 73
    45
  0
VERTEX
  5
FD
  8
0
 62
    18
 10
0.0
 20
0.0
 30
0.0
 70
   128
 71
    47
 72
    48
 73
    49
  0
VERTEX
  5
FE
  8
0
 62
    18
 10
0.0
 20
0.0
 30
0.0
 70
   128
 71
    48
 72
    50
 73
    49
  0
VERTEX
  5
FF
  8
0
 62
    18
 10
0.0
 20
0.0
 30
0.0
 70
   128
 71
    51
 72
    52
 73
    53
  0
VERTEX
  5
100
  8
0
 62
    18
 10
0.0
 20
0.0
 30
0.0
 70
   128
 71
    52
 72
    54
 73
    53
  0
SEQEND
  5
101
  8
0
 62
    18
  0
ENDBLK
  8
0
  0
BLOCK
  8
0
  2
_INCLUDE_LIBRARY_5
 70
     0
 10
0.0
 20
0.0
 30
0.0
  0
LINE
  5
81
  8
0
 62
     7
 10
769.9868774414062
 20
-0.0000002651653404
 30
147.7329254150391
 11
769.9868774414062
 21
-0.0000002651653404
 31
147.7329254150391
  0
LINE
  5
82
  8
0
 62
     7
 10
769.9868774414062
 20
-0.0000003728591196
 30
207.7329254150391
 11
769.9868774414062
 21
-0.0000003728591196
 31
207.7329254150391
  0
LINE
  5
83
  8
0
 62
     7
 10
769.9868774414062
 20
4.330124378204346
 30
207.7329254150391
 11
769.9868774414062
 21
4.330124378204346
 31
207.7329254150391
  0
LINE
  5
84
  8
0
 62
     7
 10
769.9868774414062
 20
4.330124378204346
 30
147.7329254150391
 11
769.9868774414062
 21
4.330124378204346
 31
147.7329254150391
  0
LINE
  5
85
  8
0
 62
     7
 10
809.9868774414062
 20
73.61199951171875
 30
147.7329254150391
 11
809.9868774414062
 21
73.61199951171875
 31
147.7329254150391
  0
LINE
  5
86
  8
0
 62
     7
 10
819.9868774414062
 20
73.61199951171875
 30
147.7329254150391
 11
819.9868774414062
 21
73.61199951171875
 31
147.7329254150391
  0
LINE
  5
87
  8
0
 62
     7
 10
819.9868774414062
 20
-0.0000002651653404
 30
147.7329254150391
 11
819.9868774414062
 21
-0.0000002651653404
 31
147.7329254150391
  0
LINE
  5
88
  8
0
 62
     7
 10
809.9868774414062
 20
73.61199951171875
 30
207.7329254150391
 11
809.9868774414062
 21
73.61199951171875
 31
207.7329254150391
  0
LINE
  5
89
  8
0
 62
     7
 10
774.9996948242188
 20
13.01253318786621
 30
157.7329254150391
 11
774.9996948242188
 21
13.01253318786621
 31
157.7329254150391
  0
LINE
  5
8A
  8
0
 62
     7
 10
804.999755859375
 20
64.97402954101562
 30
157.7329254150391
 11
804.999755859375
 21
64.97402954101562
 31
157.7329254150391
  0
LINE
  5
8B
  8
0
 62
     7
 10
804.999755859375
 20
64.97402954101562
 30
197.7329254150391
 11
804.999755859375
 21
64.97402954101562
 31
197.7329254150391
  0
LINE
  5
8C
  8
0
 62
     7
 10
774.9996948242188
 20
13.01253318786621
 30
197.7329254150391
 11
774.9996948242188
 21
13.01253318786621
 31
197.7329254150391
  0
LINE
  5
8D
  8
0
 62
     7
 10
809.329833984375
 20
62.47405624389648
 30
197.7329254150391
 11
809.329833984375
 21
62.47405624389648
 31
197.7329254150391
  0
LINE
  5
8E
  8
0
 62
     7
 10
779.329833984375
 20
10.51253318786621
 30
197.7329254150391
 11
779.329833984375
 21
10.51253318786621
 31
197.7329254150391
  0
LINE
  5
8F
  8
0
 62
     7
 10
779.329833984375
 20
10.51253318786621
 30
157.7329254150391
 11
779.329833984375
 21
10.51253318786621
 31
157.7329254150391
  0
LINE
  5
90
  8
0
 62
     7
 10
809.329833984375
 20
62.47405624389648
 30
157.7329254150391
 11
809.329833984375
 21
62.47405624389648
 31
157.7329254150391
  0
LINE
  5
91
  8
0
 62
     7
 10
819.9868774414062
 20
-0.0000003728591196
 30
207.7329254150391
 11
819.9868774414062
 21
-0.0000003728591196
 31
207.7329254150391
  0
LINE
  5
92
  8
0
 62
     7
 10
819.9868774414062
 20
73.61199951171875
 30
207.7329254150391
 11
819.9868774414062
 21
73.61199951171875
 31
207.7329254150391
  0
ENDBLK
  8
0
  0
BLOCK
  8
0
  2
6
 70
     0
 10
0.0
 20
0.0
 30
0.0
  0
INSERT
  5
98
  8
0
  2
7
 10
0.0
 20
0.0
 30
0.0
  0
INSERT
  5
9E
  8
0
  2
8
 10
0.0
 20
0.0
 30
0.0
  0
ENDBLK
  8
0
  0
BLOCK
  8
0
  2
7
 70
     0
 10
0.0
 20
0.0
 30
0.0
  0
INSERT
  5
9B
  8
0
  2
_INCLUDE_LIBRARY_2
 10
0.0
 20
0.0
 30
0.0
  0
INSERT
  5
9C
  8
0
  2
_INCLUDE_LIBRARY_1
 10
0.0
 20
0.0
 30
0.0
  0
ENDBLK
  8
0
  0
BLOCK
  8
0
  2
8
 70
     0
 10
0.0
 20
0.0
 30
0.0
  0
INSERT
  5
A1
  8
0
  2
_INCLUDE_LIBRARY_4
 10
0.0
 20
0.0
 30
0.0
  0
INSERT
  5
A2
  8
0
  2
_INCLUDE_LIBRARY_5
 10
0.0
 20
0.0
 30
0.0
  0
INSERT
  5
A3
  8
0
  2
_INCLUDE_LIBRARY_3
 10
0.0
 20
0.0
 30
0.0
  0
ENDBLK
  8
0
  0
ENDSEC
  0
SECTION
  2
ENTITIES
  0
INSERT
  5
94
  8
0
  2
6
 10
0.0
 20
0.0
 30
0.0
210
0.0
220
-1.0
230
0.0
  0
ENDSEC
  0
EOF
